<svg width="55" height="55" viewBox="0 0 55 55" fill="none" xmlns="http://www.w3.org/2000/svg">
<rect x="1.01599" y="1.01758" width="52" height="52" stroke="#B1AD95" stroke-width="2.033" stroke-linecap="round" stroke-linejoin="round"/>
<path d="M40.2953 31.3057C40.3168 34.1738 38.0395 36.2471 34.8383 36.2471C31.6264 36.2471 29.349 34.1738 29.3705 31.3057C29.3813 29.3076 30.6166 27.7285 32.5609 27.041C31.1752 26.3965 30.3051 25.1396 30.3051 23.582C30.3051 21.165 32.185 19.457 34.8275 19.457C37.5023 19.457 39.393 21.165 39.3822 23.582C39.3715 25.1396 38.4906 26.3965 37.0941 27.041C39.0492 27.7285 40.2846 29.3076 40.2953 31.3057ZM34.8275 21.0576C33.2162 21.0576 31.9809 22.1963 31.9809 23.6787C31.9809 25.2041 33.2162 26.3428 34.8275 26.3428C36.4604 26.3428 37.685 25.2041 37.685 23.6787C37.685 22.1963 36.4604 21.0576 34.8275 21.0576ZM34.8275 34.6465C36.9545 34.6465 38.5336 33.1318 38.5336 31.1768C38.5336 29.2324 36.9545 27.7822 34.8598 27.7822C32.7328 27.7822 31.143 29.2324 31.143 31.1768C31.143 33.1318 32.7328 34.6465 34.8275 34.6465Z" fill="#B1AD95"/>
<path d="M26.0332 35.1084C26.0332 34.4639 26.5381 33.9482 27.1934 33.9482C27.9346 33.9482 28.5146 34.6357 28.5146 35.7207C28.5146 36.9346 27.9668 38.0088 27.1611 38.6104C27.0215 38.707 26.8818 38.7178 26.7637 38.6211L26.4307 38.3633C26.3232 38.2666 26.3447 38.0518 26.5166 37.9229C27.0215 37.6113 27.4082 36.9775 27.4082 36.4512C27.4082 36.2578 27.3545 36.1611 27.29 36.2041C27.2256 36.2256 27.1611 36.2471 27.0537 36.2471C26.4844 36.2471 26.0332 35.7422 26.0332 35.1084Z" fill="#B1AD95"/>
<path d="M19.1831 19.4678C22.395 19.4678 24.9087 21.96 24.9087 25.2793C24.9087 29.6621 21.9438 33.4541 18.689 35.8174C18.5278 35.9355 18.3022 36.0322 18.1196 36.0322H16.9165C16.5298 36.0322 16.3901 35.7744 16.6909 35.5488C19.4409 33.7334 21.5894 31.0586 22.4165 29.0498C21.5679 30.0381 20.1821 30.7041 18.7212 30.7041C15.8208 30.7041 13.4468 28.2979 13.4468 25.1719C13.4468 21.9814 15.9604 19.4678 19.1831 19.4678ZM19.1938 29.2646C21.4712 29.2646 23.2759 27.4707 23.2759 25.1934C23.2759 22.916 21.4712 21.1113 19.1831 21.1113C16.8843 21.1113 15.0903 22.916 15.0903 25.1934C15.0903 27.4707 16.8843 29.2646 19.1938 29.2646Z" fill="#B1AD95"/>
</svg>
