<svg width="173" height="21" viewBox="0 0 173 21" fill="none" xmlns="http://www.w3.org/2000/svg">
<g clip-path="url(#clip0_432_89)">
<path d="M0 8.80046C0 7.8011 0.176525 6.85727 0.529574 5.97037C0.882624 5.08348 1.37946 4.30335 2.02007 3.63C2.66068 2.95664 3.42373 2.42706 4.31062 2.03985C5.19752 1.65263 6.1741 1.46045 7.24036 1.46045C8.00056 1.46045 8.78353 1.59 9.59071 1.85051C10.3979 2.11103 11.1339 2.5139 11.8001 3.06056L10.5801 5.6401H10.4406C10.4007 5.53333 10.3409 5.36677 10.2612 5.14042C10.1815 4.91407 10.0776 4.65783 9.95087 4.37026C9.82417 4.08412 9.67043 3.79086 9.49105 3.49048C9.31168 3.19011 9.10384 2.91393 8.87037 2.66053C8.6369 2.40713 8.37069 2.20071 8.07031 2.03985C7.76994 1.88041 7.43967 1.79926 7.0795 1.79926C6.58551 1.79926 6.15274 1.94305 5.77976 2.22919C5.40678 2.51675 5.08932 2.91251 4.83023 3.4193C4.56971 3.9261 4.37611 4.53255 4.25083 5.23865C4.12413 5.94617 4.06149 6.71206 4.06149 7.53916C4.06149 8.43318 4.16399 9.27594 4.37184 10.0689C4.57826 10.8618 4.87151 11.5494 5.25161 12.1288C5.63171 12.7082 6.09438 13.1694 6.64103 13.5083C7.18769 13.8485 7.80837 14.0179 8.50166 14.0179C8.68815 14.0179 8.91165 13.998 9.17217 13.9581C9.43269 13.9183 9.70602 13.8385 9.99216 13.7175C10.2783 13.5979 10.5787 13.4271 10.8919 13.2079C11.2051 12.9872 11.5026 12.7054 11.7816 12.358L11.8813 12.4776C11.6677 12.9573 11.4115 13.4243 11.1111 13.877C10.8107 14.3311 10.4449 14.7368 10.0107 15.097C9.57789 15.4572 9.0711 15.7433 8.49027 15.9568C7.91087 16.1704 7.24036 16.2771 6.48017 16.2771C5.64025 16.2771 4.83023 16.1035 4.0501 15.7575C3.26998 15.4116 2.57954 14.9105 1.98021 14.2571C1.38088 13.6036 0.899707 12.8164 0.539539 11.8968C0.179372 10.9771 0 9.9436 0 8.79619L0 8.80046Z" fill="#403F3C"/>
<path d="M20.1802 5.18054C20.5261 5.19335 20.8165 5.24745 21.05 5.33998C21.2834 5.43394 21.4728 5.53928 21.6194 5.66029L20.7396 8.00067H20.6998C20.2328 7.57359 19.8129 7.28033 19.4399 7.12089C19.0669 6.96145 18.6868 6.8803 18.2996 6.8803C18.0462 6.8803 17.8398 6.9344 17.6803 7.03974C17.5209 7.14651 17.3871 7.24616 17.2803 7.34012V14.3C17.2803 14.4737 17.2931 14.6502 17.3202 14.8296C17.3472 15.009 17.3871 15.1798 17.4398 15.3393C17.4924 15.4987 17.5665 15.6396 17.6604 15.7592C17.753 15.8788 17.8597 15.9656 17.9807 16.0197V16.1393H13.001V16.0197C13.2544 15.913 13.4338 15.6966 13.5406 15.3692C13.6473 15.0431 13.7 14.6858 13.7 14.2986V8.75801C13.7 8.31813 13.6203 7.94799 13.4594 7.64762C13.2985 7.34724 13.0466 7.05825 12.6992 6.7778V6.67815C12.9256 6.61124 13.2188 6.52156 13.579 6.40767C13.9392 6.29521 14.325 6.1742 14.7392 6.0475C15.1521 5.92081 15.5621 5.79695 15.9692 5.67737C16.3763 5.55779 16.7322 5.45102 17.0397 5.35707H17.1593V7.15648C17.5465 6.56996 18.0092 6.09306 18.5487 5.72577C19.0883 5.35991 19.6321 5.17627 20.1787 5.17627L20.1802 5.18054Z" fill="#403F3C"/>
<path d="M21.6797 10.7398C21.6797 10.0066 21.8164 9.30622 22.0897 8.63998C22.363 7.97374 22.7502 7.38295 23.2499 6.87046C23.7496 6.35797 24.3432 5.94798 25.0294 5.64048C25.7156 5.33441 26.4729 5.18066 27.3 5.18066C28.1271 5.18066 28.9229 5.32729 29.6105 5.62055C30.2967 5.91381 30.8832 6.31099 31.37 6.81067C31.8569 7.31035 32.2299 7.89687 32.4904 8.57022C32.7509 9.24358 32.8805 9.95965 32.8805 10.7198C32.8805 11.48 32.7438 12.1562 32.4705 12.8296C32.1971 13.503 31.8142 14.0937 31.3202 14.5991C30.8262 15.1059 30.2397 15.5131 29.5607 15.8191C28.8802 16.1266 28.1271 16.2789 27.3 16.2789C26.4729 16.2789 25.6529 16.1352 24.9596 15.849C24.2663 15.5629 23.677 15.1686 23.1901 14.6689C22.7032 14.1692 22.3303 13.5827 22.0698 12.9093C21.8092 12.236 21.6797 11.5128 21.6797 10.7398ZM25.4792 10.7198C25.4792 11.6793 25.5191 12.4965 25.5988 13.1698C25.6785 13.8432 25.7924 14.3898 25.9391 14.8098C26.0857 15.2298 26.275 15.5373 26.5085 15.7294C26.742 15.9231 27.0053 16.0199 27.2986 16.0199C27.5918 16.0199 27.8524 15.9231 28.0787 15.7294C28.3051 15.5358 28.4916 15.2298 28.6382 14.8098C28.7848 14.3898 28.8944 13.8432 28.9685 13.1698C29.0411 12.4965 29.0781 11.6793 29.0781 10.7198C29.0781 9.76034 29.0382 8.96313 28.9585 8.28978C28.8788 7.61642 28.7649 7.06976 28.6183 6.64981C28.4716 6.22985 28.288 5.92378 28.0687 5.73017C27.8495 5.53656 27.5918 5.43976 27.2986 5.43976C27.0053 5.43976 26.7448 5.53656 26.5185 5.73017C26.2921 5.92378 26.1013 6.22985 25.949 6.64981C25.7953 7.06976 25.6785 7.61642 25.5988 8.28978C25.5191 8.96313 25.4792 9.77316 25.4792 10.7198Z" fill="#403F3C"/>
<path d="M38.1187 16.2804C37.078 16.2804 36.1755 16.1337 35.4081 15.8405C34.6408 15.5472 34.0842 15.2212 33.7383 14.8611L34.638 12.7413H34.7576C34.7974 12.8609 34.9042 13.0987 35.0779 13.4517C35.2516 13.8048 35.4879 14.172 35.7882 14.5521C36.0886 14.9322 36.4445 15.2696 36.8588 15.5615C37.2716 15.8547 37.7314 16.0013 38.2382 16.0013C38.7052 16.0013 39.0782 15.8846 39.3586 15.6511C39.6391 15.4177 39.7786 15.0817 39.7786 14.6418C39.7786 14.0681 39.5522 13.5684 39.0981 13.1414C38.644 12.7143 38.0646 12.2886 37.3585 11.8616C36.4516 11.3149 35.7455 10.7711 35.2387 10.2316C34.7319 9.69201 34.4785 9.03431 34.4785 8.26131C34.4785 7.83423 34.5654 7.4342 34.7391 7.06122C34.9127 6.68824 35.1861 6.36082 35.559 6.08179C35.932 5.80135 36.4118 5.58212 36.9997 5.42125C37.5862 5.26181 38.2866 5.18066 39.0995 5.18066C40.0191 5.18066 40.7865 5.31021 41.4 5.57073C42.0136 5.83124 42.5133 6.12023 42.9005 6.44054L42.0207 8.68126H41.9011C41.8613 8.56168 41.7872 8.32821 41.6805 7.98086C41.5737 7.63493 41.42 7.27476 41.2207 6.90036C41.0214 6.52738 40.7637 6.19426 40.4505 5.901C40.1373 5.60774 39.7472 5.46111 39.2803 5.46111C38.7735 5.46111 38.3863 5.59493 38.1201 5.86114C37.8539 6.12735 37.7201 6.48182 37.7201 6.92171C37.7201 7.18792 37.767 7.42851 37.8596 7.64205C37.9521 7.85558 38.0959 8.05489 38.2895 8.24138C38.4831 8.42787 38.7294 8.61863 39.0298 8.81081C39.3301 9.00442 39.686 9.21369 40.1003 9.44146C41.0598 9.98812 41.7773 10.5277 42.2499 11.0615C42.7225 11.5953 42.9603 12.2345 42.9603 12.9819C42.9603 13.5556 42.8336 14.0482 42.5802 14.4624C42.3268 14.8753 41.9808 15.2155 41.5395 15.4832C41.0996 15.7494 40.5857 15.9501 39.9992 16.0825C39.4127 16.2163 38.7863 16.2818 38.1187 16.2818V16.2804Z" fill="#403F3C"/>
<path d="M48.3394 16.2804C47.2987 16.2804 46.3962 16.1337 45.6288 15.8405C44.8615 15.5472 44.3049 15.2212 43.959 14.8611L44.8587 12.7413H44.9783C45.0181 12.8609 45.1249 13.0987 45.2986 13.4517C45.4723 13.8048 45.7086 14.172 46.0089 14.5521C46.3093 14.9322 46.6652 15.2696 47.0795 15.5615C47.4923 15.8547 47.9521 16.0013 48.4589 16.0013C48.9259 16.0013 49.2989 15.8846 49.5793 15.6511C49.8597 15.4177 49.9993 15.0817 49.9993 14.6418C49.9993 14.0681 49.7729 13.5684 49.3188 13.1414C48.8647 12.7143 48.2853 12.2886 47.5792 11.8616C46.6723 11.3149 45.9662 10.7711 45.4594 10.2316C44.9526 9.69201 44.6992 9.03431 44.6992 8.26131C44.6992 7.83423 44.7861 7.4342 44.9598 7.06122C45.1334 6.68824 45.4068 6.36082 45.7797 6.08179C46.1527 5.80135 46.6325 5.58212 47.2204 5.42125C47.8069 5.26181 48.5073 5.18066 49.3202 5.18066C50.2399 5.18066 51.0072 5.31021 51.6207 5.57073C52.2343 5.83124 52.734 6.12023 53.1212 6.44054L52.2414 8.68126H52.1218C52.082 8.56168 52.0079 8.32821 51.9012 7.98086C51.7944 7.63493 51.6407 7.27476 51.4414 6.90036C51.2421 6.52738 50.9844 6.19426 50.6712 5.901C50.358 5.60774 49.9679 5.46111 49.501 5.46111C48.9942 5.46111 48.607 5.59493 48.3408 5.86114C48.0746 6.12735 47.9408 6.48182 47.9408 6.92171C47.9408 7.18792 47.9877 7.42851 48.0803 7.64205C48.1728 7.85558 48.3166 8.05489 48.5102 8.24138C48.7038 8.42787 48.9501 8.61863 49.2505 8.81081C49.5508 9.00442 49.9067 9.21369 50.321 9.44146C51.2805 9.98812 51.998 10.5277 52.4706 11.0615C52.9432 11.5953 53.181 12.2345 53.181 12.9819C53.181 13.5556 53.0543 14.0482 52.8009 14.4624C52.5475 14.8753 52.2016 15.2155 51.7602 15.4832C51.3204 15.7494 50.8064 15.9501 50.2199 16.0825C49.6334 16.2163 49.007 16.2818 48.3394 16.2818V16.2804Z" fill="#403F3C"/>
<path d="M54.6207 16.1406V16.021C54.7403 15.9684 54.847 15.8815 54.941 15.7605C55.0335 15.6409 55.1076 15.5 55.1617 15.3406C55.2143 15.1811 55.2542 15.0103 55.2812 14.8309C55.3083 14.6516 55.3211 14.475 55.3211 14.3014V8.6611C55.3211 8.19417 55.2414 7.81407 55.0805 7.52081C54.9211 7.22755 54.6677 6.9471 54.3203 6.68089V6.56131C54.5339 6.4944 54.8271 6.40756 55.2001 6.30079C55.5731 6.19403 55.9774 6.07729 56.4101 5.95059C56.8429 5.82389 57.2728 5.69719 57.6999 5.5705C58.127 5.4438 58.4928 5.33418 58.8003 5.24022H58.9V14.2999C58.9 14.4736 58.9128 14.6501 58.9398 14.8295C58.9669 15.0089 59.0068 15.1797 59.0594 15.3391C59.1121 15.4986 59.1861 15.6395 59.2801 15.7591C59.3726 15.8787 59.4794 15.9655 59.6004 16.0196V16.1392H54.6207V16.1406ZM57.1006 4.11986C56.8201 4.11986 56.5539 4.06719 56.3005 3.96042C56.0471 3.85365 55.8265 3.70702 55.64 3.52053C55.4535 3.33404 55.3069 3.11338 55.2001 2.85999C55.0933 2.60659 55.0406 2.34038 55.0406 2.05993C55.0406 1.77948 55.0933 1.51612 55.2001 1.26984C55.3069 1.02356 55.4535 0.802903 55.64 0.609295C55.8265 0.415687 56.0471 0.266211 56.3005 0.159442C56.5539 0.0526727 56.8201 0 57.1006 0C57.381 0 57.6401 0.0540963 57.8807 0.159442C58.1213 0.266211 58.3334 0.415687 58.5213 0.609295C58.7078 0.802903 58.8544 1.02214 58.9612 1.26984C59.068 1.51612 59.1206 1.77948 59.1206 2.05993C59.1206 2.34038 59.0666 2.60659 58.9612 2.85999C58.8544 3.11338 58.7078 3.33404 58.5213 3.52053C58.3348 3.70702 58.1213 3.85365 57.8807 3.96042C57.6401 4.06719 57.381 4.11986 57.1006 4.11986Z" fill="#403F3C"/>
<path d="M71.8807 14.3001C71.8807 14.4738 71.8935 14.6503 71.9206 14.8297C71.9476 15.009 71.9875 15.1799 72.0401 15.3393C72.0928 15.4987 72.1668 15.6397 72.2608 15.7593C72.3533 15.8788 72.4601 15.9657 72.5811 16.0198V16.1394H67.6014V16.0198C67.8548 15.913 68.0342 15.6966 68.1409 15.3692C68.2477 15.0432 68.3004 14.6859 68.3004 14.2987V8.8392C68.3004 7.97224 68.1537 7.36579 67.8605 7.01986C67.5672 6.67392 67.227 6.50025 66.8398 6.50025C66.2404 6.50025 65.7322 6.70667 65.3194 7.11951V14.3001C65.3194 14.4738 65.3322 14.6503 65.3592 14.8297C65.3863 15.009 65.4262 15.1799 65.4788 15.3393C65.5315 15.4987 65.6055 15.6397 65.6995 15.7593C65.792 15.8788 65.8988 15.9657 66.0198 16.0198V16.1394H61.0401V16.0198C61.2935 15.913 61.4729 15.6966 61.5796 15.3692C61.6864 15.0432 61.7391 14.6859 61.7391 14.2987V8.77799C61.7391 8.31105 61.6593 7.93095 61.4985 7.63769C61.339 7.34443 61.0856 7.05829 60.7383 6.77785V6.67819C60.9646 6.61129 61.2579 6.5216 61.6181 6.40771C61.9782 6.29525 62.364 6.17425 62.7783 6.04755C63.1911 5.92085 63.6011 5.79699 64.0083 5.67741C64.4154 5.55783 64.7713 5.45106 65.0788 5.35711H65.1984V6.99708C65.5984 6.43761 66.1052 5.99345 66.7188 5.66745C67.3323 5.34145 68.0057 5.17773 68.7388 5.17773C69.3923 5.17773 69.9218 5.31155 70.329 5.57776C70.7361 5.8454 71.055 6.18848 71.2885 6.60844C71.522 7.0284 71.6785 7.49533 71.7583 8.00782C71.838 8.52174 71.8778 9.03138 71.8778 9.53818V14.2987L71.8807 14.3001Z" fill="#403F3C"/>
<path d="M73.2988 18.2402C73.2988 18.0139 73.3657 17.8132 73.4996 17.6409C73.6319 17.4672 73.7999 17.3177 73.9992 17.191C74.2 17.0643 74.4163 16.9647 74.6498 16.8907C74.8833 16.8166 75.0997 16.7611 75.3004 16.7213C74.8876 16.5746 74.5573 16.3483 74.311 16.0408C74.0647 15.7347 73.9409 15.3874 73.9409 15.0001C73.9409 14.64 74.0035 14.3197 74.1302 14.0406C74.2569 13.7602 74.4206 13.5139 74.6199 13.3004C74.8206 13.0868 75.0498 12.9004 75.3104 12.7409C75.5709 12.5815 75.8328 12.4405 76.1004 12.321C75.42 12.0006 74.9032 11.5608 74.5502 11.0013C74.1971 10.4418 74.0206 9.80832 74.0206 9.1008C74.0206 8.56696 74.1302 8.07012 74.3509 7.61031C74.5701 7.15049 74.8847 6.75046 75.2904 6.41022C75.6976 6.06998 76.183 5.7995 76.751 5.6002C77.3176 5.4009 77.9483 5.29982 78.6415 5.29982C79.6409 5.29982 80.5022 5.48631 81.2211 5.85929C81.4346 5.76676 81.6709 5.6486 81.9315 5.50909C82.192 5.36958 82.4582 5.21583 82.7315 5.04927C83.0048 4.88271 83.2753 4.71331 83.5415 4.53963C83.8077 4.36595 84.0483 4.1937 84.2619 4.02002L84.6021 6.6807L81.6624 6.12123C82.155 6.45435 82.5351 6.87146 82.8027 7.37114C83.0689 7.87082 83.2027 8.44738 83.2027 9.1008C83.2027 9.62041 83.0931 10.1073 82.8724 10.5614C82.6532 11.0155 82.3429 11.4113 81.9428 11.7515C81.5428 12.0918 81.0631 12.358 80.5022 12.5516C79.9427 12.7452 79.322 12.842 78.6415 12.842C77.8016 12.842 77.0414 12.7082 76.361 12.442C76.0677 12.5487 75.8442 12.6626 75.6905 12.7822C75.5367 12.9018 75.4598 13.0555 75.4598 13.242C75.4598 13.709 75.9068 13.9424 76.7994 13.9424L78.4992 14.0221C80.3655 14.0891 81.7421 14.3823 82.629 14.9019C83.5159 15.4215 83.9586 16.1547 83.9586 17.1014C83.9586 17.621 83.8191 18.0879 83.5387 18.5007C83.2582 18.9136 82.8682 19.2609 82.3685 19.5414C81.8688 19.8218 81.278 20.0339 80.599 20.182C79.9185 20.3286 79.1797 20.4027 78.3796 20.4027C77.8458 20.4027 77.282 20.3628 76.6898 20.2831C76.0962 20.2034 75.5495 20.0767 75.0498 19.903C74.5502 19.7293 74.133 19.5058 73.7999 19.2325C73.4668 18.9591 73.3003 18.6289 73.3003 18.2431L73.2988 18.2402ZM75.1993 18.0594C75.1993 18.3655 75.279 18.6488 75.4399 18.9093C75.5993 19.1698 75.8228 19.3891 76.1104 19.5699C76.3966 19.7492 76.7339 19.8902 77.1197 19.9898C77.5055 20.0895 77.9269 20.1393 78.3796 20.1393C79.006 20.1393 79.5327 20.0923 79.9598 19.9998C80.3869 19.9058 80.7328 19.7791 81.0004 19.6197C81.2666 19.4602 81.4602 19.2794 81.5798 19.0801C81.6994 18.8794 81.7592 18.6673 81.7592 18.4395C81.7592 18.0125 81.6026 17.6822 81.2894 17.4501C80.9762 17.2167 80.4395 17.0729 79.6793 17.0202C79.3064 17.0074 78.969 16.9903 78.67 16.9704C78.3696 16.9505 78.0807 16.9334 77.8002 16.9206C77.5198 16.9078 77.2365 16.8935 76.9503 16.8807C76.6628 16.8679 76.3538 16.8537 76.0207 16.8408C75.9268 16.8408 75.8143 16.828 75.6805 16.801C75.5339 16.9476 75.4171 17.1369 75.3303 17.3704C75.2434 17.6039 75.2007 17.8331 75.2007 18.0609L75.1993 18.0594ZM78.6387 12.58C78.8522 12.58 79.0359 12.5302 79.1882 12.4306C79.342 12.3309 79.4686 12.1501 79.5683 11.891C79.668 11.6305 79.7448 11.2746 79.7989 10.8205C79.8516 10.3678 79.8786 9.79409 79.8786 9.1008C79.8786 8.40751 79.8516 7.81103 79.7989 7.35121C79.7448 6.89139 79.6694 6.52838 79.5683 6.26075C79.4686 5.99453 79.342 5.81089 79.1882 5.71124C79.0345 5.61159 78.8508 5.56176 78.6387 5.56176C78.4266 5.56176 78.2358 5.61159 78.0693 5.71124C77.9027 5.81089 77.766 5.99453 77.6593 6.26075C77.5525 6.52696 77.4728 6.89139 77.4187 7.35121C77.3646 7.81103 77.339 8.3947 77.339 9.1008C77.339 9.8069 77.3617 10.3877 77.4087 10.8404C77.4557 11.2945 77.5283 11.6504 77.628 11.911C77.7276 12.1715 77.8614 12.348 78.028 12.4405C78.1945 12.5345 78.3981 12.58 78.6387 12.58Z" fill="#403F3C"/>
<path d="M106.38 1.71959C106.26 1.77369 106.146 1.85625 106.039 1.97014C105.933 2.08403 105.839 2.22069 105.759 2.38013C105.679 2.53958 105.619 2.71041 105.58 2.88978C105.54 3.06915 105.52 3.2471 105.52 3.41935V14.2998C105.52 14.4735 105.54 14.65 105.58 14.8294C105.619 15.0088 105.679 15.1796 105.759 15.339C105.839 15.4985 105.933 15.6366 106.039 15.749C106.146 15.8629 106.259 15.9455 106.38 15.9996V16.1391H101.02V15.9996C101.139 15.9469 101.253 15.8629 101.36 15.749C101.467 15.6366 101.561 15.4985 101.64 15.339C101.72 15.1796 101.784 15.0088 101.83 14.8294C101.877 14.65 101.9 14.4735 101.9 14.2998V3.81938L96.9398 16.1391H96.7604L90.881 3.11898V13.8984C90.881 14.0322 90.9037 14.1959 90.9507 14.3881C90.9977 14.5817 91.0632 14.7782 91.15 14.9775C91.2369 15.1768 91.3365 15.3704 91.4504 15.5569C91.5629 15.7433 91.6867 15.89 91.8205 15.9967V16.1363H89.6211V15.9967C89.7677 15.8772 89.8973 15.7234 90.0112 15.5369C90.1236 15.3504 90.2219 15.1568 90.3016 14.9575C90.3813 14.7582 90.4454 14.5646 90.4909 14.3781C90.5379 14.1916 90.5607 14.0322 90.5607 13.8984V3.41935C90.5607 3.24567 90.5379 3.06915 90.4909 2.88978C90.4439 2.71041 90.3813 2.53958 90.3016 2.38013C90.2219 2.22069 90.1279 2.08403 90.0211 1.97014C89.9144 1.85768 89.8019 1.77369 89.6809 1.71959V1.58008H94.0613L98.4416 11.3601L102.382 1.58008H106.382V1.71959H106.38Z" fill="#403F3C"/>
<path d="M107.46 14.0805C107.46 13.4399 107.7 12.8605 108.18 12.3409C108.66 11.8213 109.52 11.3344 110.76 10.8803L113.48 9.88094V9.14068C113.48 8.79475 113.446 8.46447 113.381 8.15128C113.314 7.83809 113.197 7.56192 113.03 7.32133C112.864 7.08075 112.633 6.88856 112.34 6.74193C112.047 6.5953 111.674 6.52128 111.22 6.52128C110.807 6.52128 110.422 6.59815 110.069 6.7519C109.716 6.90565 109.409 7.11207 109.15 7.37258C108.889 7.6331 108.687 7.93205 108.54 8.27229C108.394 8.61253 108.32 8.96273 108.32 9.3229H108.18C108.18 8.78905 108.287 8.27656 108.501 7.78257C108.714 7.29001 109.013 6.85013 109.4 6.46291C109.786 6.07569 110.25 5.76678 110.79 5.53331C111.329 5.29984 111.926 5.18311 112.579 5.18311C113.339 5.18311 113.996 5.29699 114.549 5.52334C115.103 5.74969 115.563 6.07 115.929 6.48284C116.295 6.89568 116.565 7.38255 116.739 7.94344C116.912 8.50291 116.999 9.11648 116.999 9.78414V13.6036C116.999 14.203 117.082 14.603 117.25 14.8037C117.416 15.0044 117.606 15.1041 117.819 15.1041C117.966 15.1041 118.123 15.0614 118.289 14.9745C118.456 14.8877 118.612 14.7183 118.759 14.4649H118.779L118.859 14.5645C118.525 15.1511 118.155 15.5853 117.748 15.8643C117.341 16.1447 116.811 16.2842 116.158 16.2842C115.905 16.2842 115.651 16.2515 115.398 16.1846C115.144 16.1177 114.901 16.0152 114.667 15.8742C114.434 15.7347 114.218 15.5539 114.017 15.3347C113.816 15.114 113.657 14.845 113.537 14.5247C113.07 15.0842 112.544 15.5183 111.957 15.8244C111.37 16.1319 110.717 16.2842 109.997 16.2842C109.237 16.2842 108.623 16.0849 108.157 15.6849C107.69 15.2849 107.457 14.7525 107.457 14.0848L107.46 14.0805ZM111.859 15.0998C112.165 15.0998 112.455 15.0272 112.729 14.8792C113.002 14.7325 113.251 14.5588 113.479 14.3595V10.0802L112.719 10.4404C112.279 10.6539 111.916 10.8803 111.628 11.1209C111.342 11.3615 111.111 11.6078 110.938 11.8612C110.764 12.1146 110.644 12.3679 110.578 12.6213C110.511 12.8747 110.478 13.1281 110.478 13.3815C110.478 13.5808 110.505 13.7844 110.558 13.9923C110.61 14.1987 110.69 14.3852 110.798 14.5517C110.905 14.7183 111.044 14.8521 111.218 14.9518C111.392 15.0514 111.605 15.1012 111.859 15.1012V15.0998Z" fill="#403F3C"/>
<path d="M130.058 14.3001C130.058 14.4738 130.071 14.6503 130.098 14.8297C130.125 15.009 130.165 15.1799 130.218 15.3393C130.271 15.4987 130.345 15.6397 130.439 15.7593C130.531 15.8788 130.638 15.9657 130.759 16.0198V16.1394H125.779V16.0198C126.033 15.913 126.212 15.6966 126.319 15.3692C126.425 15.0432 126.478 14.6859 126.478 14.2987V8.8392C126.478 7.97224 126.331 7.36579 126.038 7.01986C125.745 6.67392 125.405 6.50025 125.018 6.50025C124.418 6.50025 123.91 6.70667 123.497 7.11951V14.3001C123.497 14.4738 123.51 14.6503 123.537 14.8297C123.564 15.009 123.604 15.1799 123.657 15.3393C123.709 15.4987 123.783 15.6397 123.877 15.7593C123.97 15.8788 124.077 15.9657 124.198 16.0198V16.1394H119.218V16.0198C119.471 15.913 119.651 15.6966 119.757 15.3692C119.864 15.0432 119.917 14.6859 119.917 14.2987V8.77799C119.917 8.31105 119.837 7.93095 119.676 7.63769C119.517 7.34443 119.263 7.05829 118.916 6.77785V6.67819C119.142 6.61129 119.436 6.5216 119.796 6.40771C120.156 6.29525 120.542 6.17425 120.956 6.04755C121.369 5.92085 121.779 5.79699 122.186 5.67741C122.593 5.55783 122.949 5.45106 123.257 5.35711H123.376V6.99708C123.776 6.43761 124.283 5.99345 124.897 5.66745C125.51 5.34145 126.183 5.17773 126.917 5.17773C127.57 5.17773 128.1 5.31155 128.507 5.57776C128.914 5.8454 129.233 6.18848 129.466 6.60844C129.7 7.0284 129.856 7.49533 129.936 8.00782C130.016 8.52174 130.056 9.03138 130.056 9.53818V14.2987L130.058 14.3001Z" fill="#403F3C"/>
<path d="M141.279 12.9804L140.699 16.1407H132.04V15.9813L136.979 5.80122H135.759C135.305 5.80122 134.88 5.89803 134.48 6.09163C134.08 6.28524 133.717 6.52867 133.389 6.82193C133.062 7.11519 132.773 7.43265 132.519 7.77147C132.266 8.1117 132.065 8.43486 131.92 8.74093H131.82L132.4 5.58057H140.659V5.75994L135.779 15.9201H137.28C137.732 15.9201 138.162 15.8233 138.57 15.6297C138.977 15.4361 139.347 15.1969 139.68 14.9093C140.013 14.6232 140.309 14.3057 140.57 13.9598C140.83 13.6139 141.032 13.2864 141.18 12.9804H141.28H141.279Z" fill="#403F3C"/>
<path d="M142.039 10.7398C142.039 10.0066 142.176 9.30622 142.449 8.63998C142.722 7.97374 143.11 7.38295 143.609 6.87046C144.109 6.35797 144.703 5.94798 145.389 5.64048C146.075 5.33441 146.832 5.18066 147.659 5.18066C148.486 5.18066 149.282 5.32729 149.97 5.62055C150.656 5.91381 151.243 6.31099 151.729 6.81067C152.216 7.31035 152.589 7.89687 152.85 8.57022C153.11 9.24358 153.24 9.95965 153.24 10.7198C153.24 11.48 153.103 12.1562 152.83 12.8296C152.557 13.503 152.174 14.0937 151.68 14.5991C151.186 15.1059 150.599 15.5131 149.92 15.8191C149.24 16.1266 148.486 16.2789 147.659 16.2789C146.832 16.2789 146.012 16.1352 145.319 15.849C144.626 15.5629 144.036 15.1686 143.549 14.6689C143.063 14.1692 142.69 13.5827 142.429 12.9093C142.169 12.236 142.039 11.5128 142.039 10.7398ZM145.84 10.7198C145.84 11.6793 145.88 12.4965 145.96 13.1698C146.039 13.8432 146.153 14.3898 146.3 14.8098C146.446 15.2298 146.636 15.5373 146.869 15.7294C147.103 15.9231 147.366 16.0199 147.659 16.0199C147.953 16.0199 148.213 15.9231 148.44 15.7294C148.666 15.5358 148.852 15.2298 148.999 14.8098C149.146 14.3898 149.255 13.8432 149.329 13.1698C149.402 12.4965 149.439 11.6793 149.439 10.7198C149.439 9.76034 149.399 8.96313 149.319 8.28978C149.24 7.61642 149.126 7.06976 148.979 6.64981C148.832 6.22985 148.649 5.92378 148.43 5.73017C148.21 5.53656 147.953 5.43976 147.659 5.43976C147.366 5.43976 147.106 5.53656 146.879 5.73017C146.653 5.92378 146.462 6.22985 146.31 6.64981C146.156 7.06976 146.039 7.61642 145.96 8.28978C145.88 8.96313 145.84 9.77316 145.84 10.7198Z" fill="#403F3C"/>
<path d="M165.42 14.3001C165.42 14.4738 165.433 14.6503 165.46 14.8297C165.487 15.009 165.527 15.1799 165.579 15.3393C165.632 15.4987 165.706 15.6397 165.8 15.7593C165.892 15.8788 165.999 15.9657 166.12 16.0198V16.1394H161.14V16.0198C161.394 15.913 161.573 15.6966 161.68 15.3692C161.787 15.0432 161.839 14.6859 161.839 14.2987V8.8392C161.839 7.97224 161.693 7.36579 161.4 7.01986C161.106 6.67392 160.766 6.50025 160.379 6.50025C159.78 6.50025 159.271 6.70667 158.858 7.11951V14.3001C158.858 14.4738 158.871 14.6503 158.898 14.8297C158.925 15.009 158.965 15.1799 159.018 15.3393C159.071 15.4987 159.145 15.6397 159.239 15.7593C159.331 15.8788 159.438 15.9657 159.559 16.0198V16.1394H154.579V16.0198C154.833 15.913 155.012 15.6966 155.119 15.3692C155.225 15.0432 155.278 14.6859 155.278 14.2987V8.77799C155.278 8.31105 155.198 7.93095 155.038 7.63769C154.878 7.34443 154.625 7.05829 154.277 6.77785V6.67819C154.504 6.61129 154.797 6.5216 155.157 6.40771C155.517 6.29525 155.903 6.17425 156.317 6.04755C156.73 5.92085 157.14 5.79699 157.547 5.67741C157.954 5.55783 158.31 5.45106 158.618 5.35711H158.737V6.99708C159.137 6.43761 159.644 5.99345 160.258 5.66745C160.871 5.34145 161.545 5.17773 162.278 5.17773C162.931 5.17773 163.461 5.31155 163.868 5.57776C164.275 5.8454 164.594 6.18848 164.828 6.60844C165.061 7.0284 165.218 7.49533 165.297 8.00782C165.377 8.52174 165.417 9.03138 165.417 9.53818V14.2987L165.42 14.3001Z" fill="#403F3C"/>
<path d="M167.48 16.1406V16.021C167.6 15.9684 167.706 15.8815 167.8 15.7605C167.893 15.6409 167.967 15.5 168.021 15.3406C168.074 15.1811 168.114 15.0103 168.141 14.8309C168.168 14.6516 168.18 14.475 168.18 14.3014V8.6611C168.18 8.19417 168.101 7.81407 167.94 7.52081C167.78 7.22755 167.527 6.9471 167.18 6.68089V6.56131C167.393 6.4944 167.686 6.40756 168.059 6.30079C168.432 6.19403 168.837 6.07729 169.27 5.95059C169.702 5.82389 170.132 5.69719 170.559 5.5705C170.986 5.4438 171.352 5.33418 171.66 5.24022H171.759V14.2999C171.759 14.4736 171.772 14.6501 171.799 14.8295C171.826 15.0089 171.866 15.1797 171.919 15.3391C171.971 15.4986 172.046 15.6395 172.139 15.7591C172.232 15.8787 172.339 15.9655 172.46 16.0196V16.1392H167.48V16.1406ZM169.96 4.11986C169.68 4.11986 169.413 4.06719 169.16 3.96042C168.907 3.85365 168.686 3.70702 168.499 3.52053C168.313 3.33404 168.166 3.11338 168.059 2.85999C167.953 2.60659 167.9 2.34038 167.9 2.05993C167.9 1.77948 167.953 1.51612 168.059 1.26984C168.166 1.02356 168.313 0.802903 168.499 0.609295C168.686 0.415687 168.907 0.266211 169.16 0.159442C169.413 0.0526727 169.68 0 169.96 0C170.24 0 170.499 0.0540963 170.74 0.159442C170.981 0.266211 171.193 0.415687 171.381 0.609295C171.567 0.802903 171.714 1.02214 171.821 1.26984C171.927 1.51612 171.98 1.77948 171.98 2.05993C171.98 2.34038 171.926 2.60659 171.821 2.85999C171.714 3.11338 171.567 3.33404 171.381 3.52053C171.194 3.70702 170.981 3.85365 170.74 3.96042C170.499 4.06719 170.24 4.11986 169.96 4.11986Z" fill="#403F3C"/>
</g>
<defs>
<clipPath id="clip0_432_89">
<rect width="172.459" height="20.4" fill="white"/>
</clipPath>
</defs>
</svg>
