<svg width="21" height="22" viewBox="0 0 21 22" fill="none" xmlns="http://www.w3.org/2000/svg">
<path fill-rule="evenodd" clip-rule="evenodd" d="M3.25 7.8418C3.25 5.77073 4.92893 4.0918 7 4.0918H13.4982C15.5693 4.0918 17.2482 5.77073 17.2482 7.8418V14.34C17.2482 16.4111 15.5693 18.09 13.4982 18.09H7C4.92893 18.09 3.25 16.4111 3.25 14.34V7.8418ZM7 5.5918C5.75736 5.5918 4.75 6.59916 4.75 7.8418V14.34C4.75 15.5827 5.75736 16.59 7 16.59H13.4982C14.7409 16.59 15.7482 15.5827 15.7482 14.34V7.8418C15.7482 6.59916 14.7409 5.5918 13.4982 5.5918H7Z" :fill="fill"/>
<path fill-rule="evenodd" clip-rule="evenodd" d="M10.2481 8.83203C9.0005 8.83203 7.98926 9.84328 7.98926 11.0909C7.98926 12.3384 9.0005 13.3497 10.2481 13.3497C11.4957 13.3497 12.5069 12.3384 12.5069 11.0909C12.5069 9.84328 11.4957 8.83203 10.2481 8.83203ZM6.48926 11.0909C6.48926 9.01485 8.17208 7.33203 10.2481 7.33203C12.3241 7.33203 14.0069 9.01485 14.0069 11.0909C14.0069 13.1669 12.3241 14.8497 10.2481 14.8497C8.17208 14.8497 6.48926 13.1669 6.48926 11.0909Z" :fill="fill"/>
<path d="M14.877 7.38771C14.877 7.89921 14.4627 8.3135 13.9512 8.3135C13.4397 8.3135 13.0254 7.89921 13.0254 7.38771C13.0254 6.87621 13.4397 6.46191 13.9512 6.46191C14.4627 6.46191 14.877 6.87621 14.877 7.38771Z" :fill="fill"/>
</svg>
