<svg width="132" height="19" viewBox="0 0 132 19" fill="none" xmlns="http://www.w3.org/2000/svg">
<path d="M1.51599 9.0166C1.51599 4.5986 5.09799 1.0166 9.51599 1.0166C13.934 1.0166 17.516 4.5986 17.516 9.0166C17.516 13.4346 13.934 17.0166 9.51599 17.0166C5.09799 17.0166 1.51599 13.4346 1.51599 9.0166Z" fill="white"/>
<circle cx="9.51636" cy="9.01758" r="8" stroke="#B1AD95" stroke-width="2.033" stroke-linecap="round" stroke-linejoin="round"/>
<path d="M6.51599 9.0166C6.51599 7.3596 7.85899 6.0166 9.51599 6.0166C11.173 6.0166 12.516 7.3596 12.516 9.0166C12.516 10.6736 11.173 12.0166 9.51599 12.0166C7.85899 12.0166 6.51599 10.6736 6.51599 9.0166Z" fill="#B1AD95"/>
<circle cx="9.51636" cy="9.01758" r="3" stroke="#B1AD95" stroke-width="2.033" stroke-linecap="round" stroke-linejoin="round"/>
<path d="M29.766 9.0166C29.766 4.5986 33.348 1.0166 37.766 1.0166C42.184 1.0166 45.766 4.5986 45.766 9.0166C45.766 13.4346 42.184 17.0166 37.766 17.0166C33.348 17.0166 29.766 13.4346 29.766 9.0166Z" fill="white"/>
<circle cx="37.7664" cy="9.01758" r="8" stroke="#B1AD95" stroke-width="2.033" stroke-linecap="round" stroke-linejoin="round"/>
<path d="M34.766 9.0166C34.766 7.3596 36.109 6.0166 37.766 6.0166C39.423 6.0166 40.766 7.3596 40.766 9.0166C40.766 10.6736 39.423 12.0166 37.766 12.0166C36.109 12.0166 34.766 10.6736 34.766 9.0166Z" fill="#B1AD95"/>
<circle cx="37.7664" cy="9.01758" r="3" stroke="#B1AD95" stroke-width="2.033" stroke-linecap="round" stroke-linejoin="round"/>
<path d="M58.016 9.0166C58.016 4.5986 61.598 1.0166 66.016 1.0166C70.434 1.0166 74.016 4.5986 74.016 9.0166C74.016 13.4346 70.434 17.0166 66.016 17.0166C61.598 17.0166 58.016 13.4346 58.016 9.0166Z" fill="white"/>
<circle cx="66.0164" cy="9.01758" r="8" stroke="#B1AD95" stroke-width="2.033" stroke-linecap="round" stroke-linejoin="round"/>
<path d="M63.016 9.0166C63.016 7.3596 64.359 6.0166 66.016 6.0166C67.673 6.0166 69.016 7.3596 69.016 9.0166C69.016 10.6736 67.673 12.0166 66.016 12.0166C64.359 12.0166 63.016 10.6736 63.016 9.0166Z" fill="#B1AD95"/>
<circle cx="66.0164" cy="9.01758" r="3" stroke="#B1AD95" stroke-width="2.033" stroke-linecap="round" stroke-linejoin="round"/>
<path d="M86.266 9.0166C86.266 4.5986 89.848 1.0166 94.266 1.0166C98.684 1.0166 102.266 4.5986 102.266 9.0166C102.266 13.4346 98.684 17.0166 94.266 17.0166C89.848 17.0166 86.266 13.4346 86.266 9.0166Z" fill="white"/>
<circle cx="94.2664" cy="9.01758" r="8" stroke="#B1AD95" stroke-width="2.033" stroke-linecap="round" stroke-linejoin="round"/>
<path d="M91.266 9.0166C91.266 7.3596 92.609 6.0166 94.266 6.0166C95.923 6.0166 97.266 7.3596 97.266 9.0166C97.266 10.6736 95.923 12.0166 94.266 12.0166C92.609 12.0166 91.266 10.6736 91.266 9.0166Z" fill="#B1AD95"/>
<circle cx="94.2664" cy="9.01758" r="3" stroke="#B1AD95" stroke-width="2.033" stroke-linecap="round" stroke-linejoin="round"/>
<path d="M114.516 9.0166C114.516 4.5986 118.098 1.0166 122.516 1.0166C126.934 1.0166 130.516 4.5986 130.516 9.0166C130.516 13.4346 126.934 17.0166 122.516 17.0166C118.098 17.0166 114.516 13.4346 114.516 9.0166Z" fill="white"/>
<circle cx="122.516" cy="9.01758" r="8" stroke="#B1AD95" stroke-width="2.033" stroke-linecap="round" stroke-linejoin="round"/>
<path d="M119.516 9.0166C119.516 7.3596 120.859 6.0166 122.516 6.0166C124.173 6.0166 125.516 7.3596 125.516 9.0166C125.516 10.6736 124.173 12.0166 122.516 12.0166C120.859 12.0166 119.516 10.6736 119.516 9.0166Z" fill="#B1AD95"/>
<circle cx="122.516" cy="9.01758" r="3" stroke="#B1AD95" stroke-width="2.033" stroke-linecap="round" stroke-linejoin="round"/>
</svg>
